<?xml version="1.0" encoding="UTF-8" standalone="no"?>
<!-- Generator: Adobe Illustrator 18.0.0, SVG Export Plug-In . SVG Version: 6.00 Build 0)  -->

<svg
   xmlns:dc="http://purl.org/dc/elements/1.1/"
   xmlns:cc="http://creativecommons.org/ns#"
   xmlns:rdf="http://www.w3.org/1999/02/22-rdf-syntax-ns#"
   xmlns:svg="http://www.w3.org/2000/svg"
   xmlns="http://www.w3.org/2000/svg"
   xmlns:sodipodi="http://sodipodi.sourceforge.net/DTD/sodipodi-0.dtd"
   xmlns:inkscape="http://www.inkscape.org/namespaces/inkscape"
   version="1.1"
   id="Capa_1"
   x="0px"
   y="0px"
   viewBox="0 0 60 60"
   style="enable-background:new 0 0 60 60;"
   xml:space="preserve"
   sodipodi:docname="favicon.svg"
   inkscape:version="0.92.5 (2060ec1f9f, 2020-04-08)"
   inkscape:export-filename="/home/havk/NapCode/projects/shypwa/public/pwa-512x512.png"
   inkscape:export-xdpi="819.20001"
   inkscape:export-ydpi="819.20001"><metadata
   id="metadata47"><rdf:RDF><cc:Work
       rdf:about=""><dc:format>image/svg+xml</dc:format><dc:type
         rdf:resource="http://purl.org/dc/dcmitype/StillImage" /><dc:title></dc:title></cc:Work></rdf:RDF></metadata><defs
   id="defs45" /><sodipodi:namedview
   pagecolor="#ffffff"
   bordercolor="#666666"
   borderopacity="1"
   objecttolerance="10"
   gridtolerance="10"
   guidetolerance="10"
   inkscape:pageopacity="0"
   inkscape:pageshadow="2"
   inkscape:window-width="1366"
   inkscape:window-height="744"
   id="namedview43"
   showgrid="false"
   inkscape:zoom="4.675"
   inkscape:cx="28.662565"
   inkscape:cy="40.500744"
   inkscape:window-x="0"
   inkscape:window-y="0"
   inkscape:window-maximized="1"
   inkscape:current-layer="Capa_1" />
<ellipse
   style="opacity:1;fill:#f0f5f9;fill-opacity:1;fill-rule:nonzero;stroke:none;stroke-width:2.57690835;stroke-linecap:round;stroke-linejoin:round;stroke-miterlimit:4;stroke-dasharray:none;stroke-opacity:1;paint-order:fill markers stroke"
   id="path822"
   cx="30.000002"
   cy="30"
   rx="30"
   ry="25" />
<g
   id="g8"
   transform="matrix(0.4,0,0,0.4,18.0002,18)"
   style="fill:#f4be05;fill-opacity:1">
	<path
   d="m 53.268,11.097 -0.699,-0.86 -10.652,10.651 0.467,0.684 c 1.696,2.491 2.593,5.406 2.593,8.429 0,3.023 -0.896,5.938 -2.593,8.429 l -0.467,0.684 10.651,10.651 0.699,-0.86 c 4.326,-5.324 6.709,-12.038 6.709,-18.903 0,-6.865 -2.382,-13.581 -6.708,-18.905 z"
   id="path2"
   inkscape:connector-curvature="0"
   style="fill:#2f3b51;fill-opacity:1" />
</g>
<g
   id="g9"
   transform="matrix(0.4,0,0,0.4,18.0002,18)"
   style="fill:#2f3b51;fill-opacity:1">
	<path
   d="M 38.406,42.407 C 35.915,44.104 33,45 29.977,45 22.785,45 16.591,39.875 15.25,32.813 L 15.096,32 H 0.023 l 0.113,1.103 C 1.712,48.437 14.541,60 29.977,60 36.842,60 43.556,57.617 48.88,53.291 L 49.74,52.592 39.089,41.94 Z"
   id="path4"
   inkscape:connector-curvature="0"
   style="fill:#2f3b51;fill-opacity:1" />
</g>
<g
   id="g10"
   transform="matrix(0.4,0,0,0.4,18.0002,18)"
   style="fill:#2f3b51;fill-opacity:1">
	<path
   d="m 29.977,4 c 4.825,0 9.564,1.358 13.644,3.871 l -5.137,5.137 C 35.857,11.689 32.958,11 29.977,11 21.717,11 14.497,16.336 11.954,24 H 4.669 C 7.384,12.392 17.734,4 29.977,4 m 0,-4 C 14.541,0 1.712,11.563 0.136,26.897 L 0.023,28 H 15.096 L 15.25,27.187 C 16.591,20.125 22.785,15 29.977,15 c 3.022,0 5.937,0.896 8.429,2.593 L 39.09,18.06 49.741,7.408 48.881,6.709 C 43.556,2.383 36.842,0 29.977,0 Z"
   id="path6"
   inkscape:connector-curvature="0"
   style="fill:#2f3b51;fill-opacity:1" />
</g>
<g
   id="g12"
   style="fill:none;fill-opacity:1;stroke:#2f3b51;stroke-opacity:1"
   transform="matrix(3,0,0,3,-6,-6)">
  <path
   d="m 21,12 c -1.8886,2.991 -5.2817,6 -9,6 -3.7183,0 -7.11144,-3.009 -9,-6 2.29855,-2.84175 4.99163,-6 9,-6 4.0084,0 6.7015,3.1582 9,6 z"
   id="path10"
   style="fill:none;fill-opacity:1;stroke:#2f3b51;stroke-width:1.5;stroke-linecap:round;stroke-linejoin:round;stroke-opacity:1"
   inkscape:connector-curvature="0" />
</g>
</svg>